{
  "accessors": [
    {
      "bufferView": 2,
      "componentType": 5126,
      "count": 65532,
      "max": [
        5.308052062988281,
        8.988381385803223,
        27.632041931152344
      ],
      "min": [
        -10.479264259338379,
        -3.8465075492858887,
        0.22811126708984375
      ],
      "type": "VEC3"
    },
    {
      "bufferView": 2,
      "byteOffset": 786384,
      "componentType": 5126,
      "count": 65532,
      "max": [
        0.9999665021896362,
        0.9999874830245972,
        0.9999970197677612
      ],
      "min": [
        -0.9999860525131226,
        -0.999990701675415,
        -0.999986469745636
      ],
      "type": "VEC3"
    },
    {
      "bufferView": 1,
      "componentType": 5126,
      "count": 65532,
      "max": [
        0.9994803667068481,
        0.9702147245407104
      ],
      "min": [
        0.00048828125,
        0.0005317522445693612
      ],
      "type": "VEC2"
    },
    {
      "bufferView": 0,
      "componentType": 5125,
      "count": 299082,
      "type": "SCALAR"
    },
    {
      "bufferView": 2,
      "byteOffset": 1572768,
      "componentType": 5126,
      "count": 65532,
      "max": [
        6.673826694488525,
        3.42085862159729,
        27.623798370361328
      ],
      "min": [
        -4.205999851226807,
        -4.499767780303955,
        12.343629837036133
      ],
      "type": "VEC3"
    },
    {
      "bufferView": 2,
      "byteOffset": 2359152,
      "componentType": 5126,
      "count": 65532,
      "max": [
        0.9999978542327881,
        0.9999666213989258,
        0.9999970197677612
      ],
      "min": [
        -0.9999718070030212,
        -0.9998906850814819,
        -0.9999967813491821
      ],
      "type": "VEC3"
    },
    {
      "bufferView": 1,
      "byteOffset": 524256,
      "componentType": 5126,
      "count": 65532,
      "max": [
        0.9995046854019165,
        0.9956053495407104
      ],
      "min": [
        0.00048828125,
        0.00048567785415798426
      ],
      "type": "VEC2"
    },
    {
      "bufferView": 0,
      "byteOffset": 1196328,
      "componentType": 5125,
      "count": 279756,
      "type": "SCALAR"
    },
    {
      "bufferView": 2,
      "byteOffset": 3145536,
      "componentType": 5126,
      "count": 65532,
      "max": [
        11.431836128234863,
        3.6192777156829834,
        24.132410049438477
      ],
      "min": [
        -4.233627796173096,
        -6.165004730224609,
        0.22811126708984375
      ],
      "type": "VEC3"
    },
    {
      "bufferView": 2,
      "byteOffset": 3931920,
      "componentType": 5126,
      "count": 65532,
      "max": [
        0.9999867677688599,
        0.9999556541442871,
        0.9999234676361084
      ],
      "min": [
        -0.9999860525131226,
        -0.9999956488609314,
        -0.9999993443489075
      ],
      "type": "VEC3"
    },
    {
      "bufferView": 1,
      "byteOffset": 1048512,
      "componentType": 5126,
      "count": 65532,
      "max": [
        0.9994910955429077,
        0.9858397245407104
      ],
      "min": [
        0.00048828125,
        0.0004977775970473886
      ],
      "type": "VEC2"
    },
    {
      "bufferView": 0,
      "byteOffset": 2315352,
      "componentType": 5125,
      "count": 280710,
      "type": "SCALAR"
    },
    {
      "bufferView": 2,
      "byteOffset": 4718304,
      "componentType": 5126,
      "count": 12158,
      "max": [
        11.42509651184082,
        8.957169532775879,
        24.169790267944336
      ],
      "min": [
        -10.32948112487793,
        -6.144060134887695,
        19.165653228759766
      ],
      "type": "VEC3"
    },
    {
      "bufferView": 2,
      "byteOffset": 4864200,
      "componentType": 5126,
      "count": 12158,
      "max": [
        0.9996097087860107,
        0.9998970031738281,
        0.9998881220817566
      ],
      "min": [
        -0.9999188780784607,
        -0.9997212290763855,
        -0.9996819496154785
      ],
      "type": "VEC3"
    },
    {
      "bufferView": 1,
      "byteOffset": 1572768,
      "componentType": 5126,
      "count": 12158,
      "max": [
        0.9986893534660339,
        0.9584959745407104
      ],
      "min": [
        0.00048828125,
        0.0004936648765578866
      ],
      "type": "VEC2"
    },
    {
      "bufferView": 0,
      "byteOffset": 3438192,
      "componentType": 5125,
      "count": 40416,
      "type": "SCALAR"
    }
  ],
  "asset": {
    "extras": {
      "author": "Hover-cam (https://sketchfab.com/Hover-cam)",
      "license": "CC-BY-4.0 (http://creativecommons.org/licenses/by/4.0/)",
      "source": "https://sketchfab.com/3d-models/ironman-49cc794cd2f14626919abdd33432c82e",
      "title": "Ironman"
    },
    "generator": "Sketchfab-13.93.0",
    "version": "2.0"
  },
  "bufferViews": [
    {
      "buffer": 0,
      "byteLength": 3599856,
      "name": "floatBufferViews",
      "target": 34963
    },
    {
      "buffer": 0,
      "byteLength": 1670032,
      "byteOffset": 3599856,
      "byteStride": 8,
      "name": "floatBufferViews",
      "target": 34962
    },
    {
      "buffer": 0,
      "byteLength": 5010096,
      "byteOffset": 5269888,
      "byteStride": 12,
      "name": "floatBufferViews",
      "target": 34962
    }
  ],
  "buffers": [
    {
      "byteLength": 10279984,
      "uri": "scene.bin"
    }
  ],
  "images": [
    {
      "uri": "textures/tex_u1_v1_baseColor.jpeg"
    }
  ],
  "materials": [
    {
      "doubleSided": true,
      "name": "tex_u1_v1",
      "pbrMetallicRoughness": {
        "baseColorTexture": {
          "index": 0
        },
        "metallicFactor": 0.0,
        "roughnessFactor": 0.4895222537821068
      }
    }
  ],
  "meshes": [
    {
      "name": "Object_0",
      "primitives": [
        {
          "attributes": {
            "NORMAL": 1,
            "POSITION": 0,
            "TEXCOORD_0": 2
          },
          "indices": 3,
          "material": 0,
          "mode": 4
        }
      ]
    },
    {
      "name": "Object_1",
      "primitives": [
        {
          "attributes": {
            "NORMAL": 5,
            "POSITION": 4,
            "TEXCOORD_0": 6
          },
          "indices": 7,
          "material": 0,
          "mode": 4
        }
      ]
    },
    {
      "name": "Object_2",
      "primitives": [
        {
          "attributes": {
            "NORMAL": 9,
            "POSITION": 8,
            "TEXCOORD_0": 10
          },
          "indices": 11,
          "material": 0,
          "mode": 4
        }
      ]
    },
    {
      "name": "Object_3",
      "primitives": [
        {
          "attributes": {
            "NORMAL": 13,
            "POSITION": 12,
            "TEXCOORD_0": 14
          },
          "indices": 15,
          "material": 0,
          "mode": 4
        }
      ]
    }
  ],
  "nodes": [
    {
      "children": [
        1
      ],
      "matrix": [
        1.0,
        0.0,
        0.0,
        0.0,
        0.0,
        2.220446049250313e-16,
        -1.0,
        0.0,
        0.0,
        1.0,
        2.220446049250313e-16,
        0.0,
        0.0,
        0.0,
        0.0,
        1.0
      ],
      "name": "Sketchfab_model"
    },
    {
      "children": [
        2,
        3,
        4,
        5
      ],
      "name": "model.obj.cleaner.materialmerger.gles"
    },
    {
      "mesh": 0,
      "name": "Object_2"
    },
    {
      "mesh": 1,
      "name": "Object_3"
    },
    {
      "mesh": 2,
      "name": "Object_4"
    },
    {
      "mesh": 3,
      "name": "Object_5"
    }
  ],
  "samplers": [
    {
      "magFilter": 9729,
      "minFilter": 9987,
      "wrapS": 10497,
      "wrapT": 10497
    }
  ],
  "scene": 0,
  "scenes": [
    {
      "name": "Sketchfab_Scene",
      "nodes": [
        0
      ]
    }
  ],
  "textures": [
    {
      "sampler": 0,
      "source": 0
    }
  ]
}
